<?xml version="1.0" encoding="UTF-8"?> <svg xmlns="http://www.w3.org/2000/svg" viewBox="0 0 347.56 71.21"><defs><style>.cls-1{fill:#60bd6a;}.cls-2{fill:#d3edf1;}.cls-3{fill:#686868;}</style></defs><g id="Artwork"><rect class="cls-1" y="44.47" width="8.62" height="8.85"></rect><rect class="cls-1" x="32.46" y="53.22" width="8.62" height="8.85"></rect><rect class="cls-2" x="40.98" y="61.97" width="8.62" height="8.85"></rect><rect class="cls-1" x="14.22" y="61.97" width="8.62" height="8.85"></rect><rect class="cls-2" x="57.6" y="44.47" width="8.62" height="8.85"></rect><rect class="cls-2" x="78.79" y="44.37" width="8.62" height="8.85"></rect><rect class="cls-1" x="61.66" y="62.08" width="8.62" height="8.85"></rect><rect class="cls-1" x="70.17" y="53.22" width="8.62" height="8.85"></rect><rect class="cls-2" x="121.68" y="62.08" width="8.62" height="8.85"></rect><rect class="cls-1" x="130.27" y="53.22" width="8.62" height="8.85"></rect><rect class="cls-1" x="138.89" y="44.37" width="8.62" height="8.85"></rect><rect class="cls-1" x="138.89" y="62.08" width="8.62" height="8.85"></rect><rect class="cls-1" x="147.5" y="53.22" width="8.62" height="8.85"></rect><rect class="cls-1" x="156.12" y="44.37" width="8.62" height="8.85"></rect><rect class="cls-1" x="164.74" y="53.22" width="8.62" height="8.85"></rect><rect class="cls-1" x="173.35" y="44.37" width="8.62" height="8.85"></rect><rect class="cls-1" x="173.35" y="62.05" width="8.62" height="8.85"></rect><rect class="cls-2" x="181.97" y="44.37" width="8.62" height="8.85"></rect><rect class="cls-1" x="181.97" y="53.22" width="8.62" height="8.85"></rect><polygon class="cls-1" points="199.2 53.22 190.58 53.22 190.58 44.37 199.2 53.22 199.2 53.22"></polygon><polygon class="cls-1" points="199.2 62.08 190.58 70.93 190.58 62.08 199.2 62.08 199.2 62.08"></polygon><rect class="cls-2" x="190.58" y="53.22" width="8.62" height="8.85"></rect><rect class="cls-2" x="181.97" y="62.08" width="8.62" height="8.85"></rect><rect class="cls-2" x="173.35" y="53.22" width="8.62" height="8.85"></rect><rect class="cls-2" x="164.74" y="44.38" width="8.62" height="8.85"></rect><rect class="cls-2" x="164.74" y="62.08" width="8.62" height="8.85"></rect><polygon class="cls-1" points="203.68 57.62 199.2 57.62 199.2 53.22 203.68 57.62 203.68 57.62"></polygon><polygon class="cls-1" points="203.68 57.61 199.2 62.08 199.2 57.61 203.68 57.61 203.68 57.61"></polygon><path class="cls-3" d="M244.7,74.25,240.86,94h-3.38l3.84-19.71Zm1.39-7.13-.64,3.29h-3.38l.64-3.29Z" transform="translate(-25.36 -22.75)"></path><path class="cls-3" d="M246,94l3.83-19.71h3L252,80.34q3.63-6.09,9-6.09t4.11,6.41L262.49,94h-3.38L261.7,80.6q.68-3.45-2.67-3.45-3.81,0-7.63,6.25L249.34,94Z" transform="translate(-25.36 -22.75)"></path><path class="cls-3" d="M274.8,74.25,271,94h-3.38l3.84-19.71Zm1.38-7.13-.64,3.29h-3.37l.63-3.29Z" transform="translate(-25.36 -22.75)"></path><path class="cls-3" d="M280.51,71.06h2.12l.11,3.19h5.19l-.55,2.82h-4.66l-2.21,11.32c-.35,1.84.25,2.76,1.79,2.76h2.34L284.09,94h-3.21q-4.83,0-3.78-5.31Z" transform="translate(-25.36 -22.75)"></path><path class="cls-3" d="M295.21,74.25,291.38,94H288l3.84-19.71Zm1.39-7.13L296,70.41h-3.38l.64-3.29Z" transform="translate(-25.36 -22.75)"></path><path class="cls-3" d="M311.94,94h-3l.55-4.69Q306.4,94,302.1,94q-6.54,0-4.67-9.59,2-10.11,11.56-10.12a23.53,23.53,0,0,1,6.62.81Zm-.2-16.36a8.72,8.72,0,0,0-3.47-.45q-6.12,0-7.5,7.18Q299.46,91,303.25,91c2.61,0,4.88-1.59,6.83-4.77Z" transform="translate(-25.36 -22.75)"></path><path class="cls-3" d="M321.13,71.06h2.12l.11,3.19h5.19L328,77.07h-4.66l-2.21,11.32c-.35,1.84.24,2.76,1.79,2.76h2.34L324.71,94H321.5q-4.83,0-3.78-5.31Z" transform="translate(-25.36 -22.75)"></path><path class="cls-3" d="M335.83,74.25,332,94h-3.38l3.83-19.71Zm1.39-7.13-.64,3.29H333.2l.64-3.29Z" transform="translate(-25.36 -22.75)"></path><path class="cls-3" d="M338.19,74.25h3.65l2.48,15.45,8.48-15.45h3.65L344.82,94h-3.14Z" transform="translate(-25.36 -22.75)"></path><path class="cls-3" d="M372.78,79.87q-1.06,5.41-7.91,5.42h-6.12q-1.12,5.86,4.28,5.86a11.12,11.12,0,0,0,7.19-2.44l-.55,2.81A11,11,0,0,1,362.48,94q-8.79,0-6.83-10.08,1.88-9.63,10.7-9.63Q373.88,74.25,372.78,79.87ZM359.32,82.4h6.12q3.46,0,4-2.59c.35-1.85-.85-2.78-3.62-2.78Q360.68,77,359.32,82.4Z" transform="translate(-25.36 -22.75)"></path><path class="cls-3" d="M67,22.75H88.45c8.63,0,11.43,4,11.43,9.46,0,4.54-2.37,7.37-5.6,8.39v.1c4,.87,4.94,4.43,4.94,9.41,0,1.7,0,5.51,1.42,7.46H93a11.92,11.92,0,0,1-.86-5.27c0-4.92-.71-8.48-5.88-8.48H74.12V57.57H67Zm19.4,15.61c4,0,6.07-1.22,6.07-5.12,0-3.66-2.28-5-6.07-5H74.12V38.36Z" transform="translate(-25.36 -22.75)"></path><path class="cls-3" d="M105.67,22.75h21.44c8.63,0,11.43,4,11.43,9.46,0,4.54-2.37,7.37-5.6,8.39v.1c4,.87,4.94,4.43,4.94,9.41,0,1.7.05,5.51,1.42,7.46h-7.68a11.92,11.92,0,0,1-.86-5.27c0-4.92-.71-8.48-5.88-8.48h-12.1V57.57h-7.11Zm19.4,15.61c4,0,6.07-1.22,6.07-5.12,0-3.66-2.28-5-6.07-5H112.78V38.36Z" transform="translate(-25.36 -22.75)"></path><path class="cls-3" d="M144.33,22.75h7.11V57.57h-7.11Z" transform="translate(-25.36 -22.75)"></path><path class="cls-3" d="M158.37,22.75h22.39c7.73,0,9.72,4.25,9.72,8.68,0,5-2.84,6.34-4.6,7.27,2.61.78,6.17,2.83,6.17,8.63,0,3.9-2.42,10.24-11.53,10.24H158.37Zm7.11,14.14h13.29c2,0,4.6-.53,4.6-4.43,0-2.93-1.66-4.25-5.84-4.25H165.48Zm0,15.22h12.76c3.23,0,6.41-.64,6.41-5.12,0-3.27-2.14-4.93-5.36-4.93H165.48Z" transform="translate(-25.36 -22.75)"></path><path class="cls-3" d="M235.64,22.75H253.9c13.29,0,16.56,7.81,16.56,17.75,0,7.46-3.32,17.07-14.85,17.07h-20Zm7.12,29.36h10c5.12,0,10.57-1.71,10.57-11.9,0-11.31-7-12-10.95-12h-9.63Z" transform="translate(-25.36 -22.75)"></path><path class="cls-3" d="M287.25,22.75h8.45l15.08,34.82h-7.92l-3.56-8.63H283.36l-3.51,8.63h-7.68ZM299.3,48.94,291.38,28.8l-8,20.14Z" transform="translate(-25.36 -22.75)"></path><polygon class="cls-3" points="266.68 20.66 271.8 20.66 273.98 26.29 264.57 26.29 266.68 20.66"></polygon><rect class="cls-2" x="156.12" y="53.22" width="8.62" height="8.85"></rect><rect class="cls-2" x="147.53" y="62.08" width="8.62" height="8.85"></rect><rect class="cls-1" x="104.45" y="62.08" width="8.62" height="8.85"></rect><rect class="cls-1" x="113.04" y="53.22" width="8.62" height="8.85"></rect><rect class="cls-1" x="121.66" y="44.37" width="8.62" height="8.85"></rect><rect class="cls-1" x="87.22" y="62.08" width="8.62" height="8.85"></rect><rect class="cls-1" x="95.81" y="53.22" width="8.62" height="8.85"></rect><rect class="cls-1" x="104.43" y="44.37" width="8.62" height="8.85"></rect><rect class="cls-2" x="147.5" y="44.38" width="8.62" height="8.85"></rect><rect class="cls-2" x="113.04" y="44.37" width="8.62" height="8.85"></rect><rect class="cls-2" x="130.27" y="44.47" width="8.62" height="8.85"></rect><polygon class="cls-3" points="0 34.81 15.09 0 23.53 0 38.62 34.81 30.65 34.81 27.17 26.29 17.79 26.29 19.81 20.66 24.96 20.66 19.21 6.05 15.7 14.87 10.58 27.7 7.68 34.81 0 34.81"></polygon><polygon class="cls-3" points="168.71 34.81 183.79 0 192.24 0 207.32 34.81 199.35 34.81 195.88 26.29 186.5 26.29 188.52 20.66 193.67 20.66 187.92 6.05 184.41 14.87 179.29 27.7 176.39 34.81 168.71 34.81"></polygon></g></svg> 